{
    "asset" : {
        "generator" : "Khronos glTF Blender I/O v1.0.5",
        "version" : "2.0"
    },
    "scene" : 0,
    "scenes" : [
        {
            "name" : "models",
            "nodes" : [
                0
            ]
        },
        {
            "name" : "ouxley apartment"
        },
        {
            "name" : "spaceship"
        }
    ],
    "nodes" : [
        {
            "mesh" : 0,
            "name" : "Cylinder.004"
        }
    ],
    "meshes" : [
        {
            "name" : "Cylinder.002",
            "primitives" : [
                {
                    "attributes" : {
                        "POSITION" : 0,
                        "NORMAL" : 1,
                        "TEXCOORD_0" : 2
                    },
                    "indices" : 3
                }
            ]
        }
    ],
    "accessors" : [
        {
            "bufferView" : 0,
            "componentType" : 5126,
            "count" : 2149,
            "max" : [
                0.06758897751569748,
                0.156557098031044,
                0.16994628310203552
            ],
            "min" : [
                -0.1631462275981903,
                -0.12536536157131195,
                -0.1616969108581543
            ],
            "type" : "VEC3"
        },
        {
            "bufferView" : 1,
            "componentType" : 5126,
            "count" : 2149,
            "type" : "VEC3"
        },
        {
            "bufferView" : 2,
            "componentType" : 5126,
            "count" : 2149,
            "type" : "VEC2"
        },
        {
            "bufferView" : 3,
            "componentType" : 5123,
            "count" : 4080,
            "type" : "SCALAR"
        }
    ],
    "bufferViews" : [
        {
            "buffer" : 0,
            "byteLength" : 25788,
            "byteOffset" : 0
        },
        {
            "buffer" : 0,
            "byteLength" : 25788,
            "byteOffset" : 25788
        },
        {
            "buffer" : 0,
            "byteLength" : 17192,
            "byteOffset" : 51576
        },
        {
            "buffer" : 0,
            "byteLength" : 8160,
            "byteOffset" : 68768
        }
    ],
    "buffers" : [
        {
            "byteLength" : 76928,
            "uri" : "data:application/octet-stream;base64,"
        }
    ]
}
